<svg width="50" height="50" viewBox="0 0 50 50" fill="none" xmlns="http://www.w3.org/2000/svg">
<path d="M34.375 19.5833L15.625 8.77084" stroke="#FACD60" stroke-width="2" stroke-linecap="round" stroke-linejoin="round"/>
<path d="M43.75 33.3333V16.6667C43.7492 15.936 43.5564 15.2184 43.1907 14.5858C42.825 13.9532 42.2995 13.4278 41.6667 13.0625L27.0833 4.72917C26.4499 4.36347 25.7314 4.17094 25 4.17094C24.2686 4.17094 23.5501 4.36347 22.9167 4.72917L8.33333 13.0625C7.70055 13.4278 7.17496 13.9532 6.80929 14.5858C6.44363 15.2184 6.25075 15.936 6.25 16.6667V33.3333C6.25075 34.064 6.44363 34.7816 6.80929 35.4142C7.17496 36.0468 7.70055 36.5722 8.33333 36.9375L22.9167 45.2708C23.5501 45.6365 24.2686 45.8291 25 45.8291C25.7314 45.8291 26.4499 45.6365 27.0833 45.2708L41.6667 36.9375C42.2995 36.5722 42.825 36.0468 43.1907 35.4142C43.5564 34.7816 43.7492 34.064 43.75 33.3333Z" stroke="#FACD60" stroke-width="2" stroke-linecap="round" stroke-linejoin="round"/>
<path d="M6.8125 14.5L25 25.0208L43.1875 14.5" stroke="#FACD60" stroke-width="2" stroke-linecap="round" stroke-linejoin="round"/>
<path d="M25 46V25" stroke="#FACD60" stroke-width="2" stroke-linecap="round" stroke-linejoin="round"/>
</svg>
